<?xml version="1.0" encoding="UTF-8" standalone="no"?>
<!-- Created with Inkscape (http://www.inkscape.org/) -->
<svg
   xmlns:svg="http://www.w3.org/2000/svg"
   xmlns="http://www.w3.org/2000/svg"
   version="1.0"
   width="1704.1012"
   height="300"
   id="svg2">
  <defs
     id="defs5" />
  <g
     transform="matrix(1.3484642,0,0,1.3484642,-6.1476944,-327.95008)"
     id="g2406"
     style="fill:#b2c9d9;fill-opacity:1;stroke:none">
    <path
       d="M 86.474584,296.25659 L 60.44397,296.25659 L 60.591035,268.46118 L 22.059843,274.19674 L 22.059843,295.66832 L 4.5590342,298.3155 L 4.5590342,315.37511 L 22.648105,315.37511 L 22.50104,390.23152 C 22.62794,392.92455 26.95205,417.2155 53.237754,415.67387 C 83.053878,413.92518 85.59219,410.52657 88.239372,408.76179 C 88.029178,408.98041 88.239372,394.20229 88.239372,394.20229 L 72.062154,394.64348 C 72.062154,394.64348 62.944085,394.05522 61.473429,383.90769 C 61.417035,383.91565 61.179298,315.66925 61.179298,315.66925 L 86.474584,315.81631 L 86.474584,296.25659 z"
       id="path2384"
       style="fill:#b2c9d9;fill-opacity:1;fill-rule:evenodd;stroke:none;stroke-width:1px;stroke-linecap:butt;stroke-linejoin:miter;stroke-opacity:1" />
    <path
       d="M 142.46982,243.20266 L 90.445356,250.66624 L 90.518889,260.59317 L 104.34306,266.76993 L 104.49012,396.7024 L 91.401283,401.8497 L 91.548348,412.51196 L 155.37483,412.58549 L 155.37483,401.99677 L 142.50659,396.40827 L 142.58012,319.56649 C 142.58012,319.56649 149.85987,316.33104 159.93386,316.33104 C 170.00786,316.33104 174.64042,322.80193 174.64042,326.7727 C 174.64042,330.74347 174.64042,396.62887 174.64042,396.62887 L 162.87517,401.8497 L 162.87517,412.58549 L 226.55459,412.58549 L 226.55459,402.2909 L 213.46575,395.89354 L 213.46575,317.1399 C 213.46575,317.1399 213.75987,292.13875 184.78795,293.3888 C 167.16034,293.49543 154.67627,299.05083 142.39629,308.75716 C 142.39629,308.72039 142.39628,243.2762 142.46982,243.20266 z"
       id="path2396"
       style="fill:#b2c9d9;fill-opacity:1;fill-rule:evenodd;stroke:none;stroke-width:1px;stroke-linecap:butt;stroke-linejoin:miter;stroke-opacity:1" />
    <path
       d="M 298.66243,342.42709 L 266.3212,343.88297 C 266.3212,343.88297 266.10744,327.35777 269.40215,316.86532 C 272.03137,308.49223 277.3478,305.72759 283.47973,305.71824 C 293.69348,305.70266 296.24604,311.43003 297.39404,318.46624 C 299.046,328.59131 298.77462,342.3149 298.66243,342.42709 z M 336.51519,357.5058 L 266.42519,357.5058 C 266.42519,357.5058 266.00992,391.52385 302.19813,391.77087 C 317.48482,391.87486 332.04357,387.50724 332.04357,387.50724 L 332.04357,398.47829 C 332.04357,398.47829 320.81253,414.8049 289.82319,415.84481 C 250.59885,415.24033 229.71711,400.18567 226.80458,359.68962 C 226.49261,334.62776 232.89299,295.85018 283.58372,293.44729 C 335.31221,290.9952 337.9931,331.86889 336.51519,357.5058 z"
       id="path2400"
       style="fill:#b2c9d9;fill-opacity:1;fill-rule:evenodd;stroke:none;stroke-width:1px;stroke-linecap:butt;stroke-linejoin:miter;stroke-opacity:1" />
  </g>
  <g
     transform="matrix(1.3484642,0,0,1.3484642,-6.1476944,-327.95008)"
     id="g3233"
     style="fill:#00417b;fill-opacity:1">
    <path
       d="M 419.65175,327.36096 L 419.65175,338.46442 C 419.65175,338.46442 421.5636,358.46534 406.41584,358.53887 C 391.26808,358.61241 391.70928,346.92069 391.70928,338.46442 C 391.70928,330.00814 391.70928,325.37558 391.70928,325.37558 C 391.70928,325.37558 390.82688,306.40411 405.16578,306.33058 C 419.50468,306.25705 419.57821,321.11067 419.65175,327.36096 z M 466.41861,292.50641 L 434.13771,298.46257 C 434.13771,298.46257 417.37223,292.35935 405.45991,292.35935 C 397.4445,292.35935 356.11659,295.53634 354.60964,331.82 C 353.54575,357.43589 375.1644,366.99515 375.01733,366.99515 C 374.87026,366.99515 354.42814,379.64279 354.28108,395.37881 C 354.13401,411.11483 372.81135,415.5268 372.81135,415.5268 C 372.84982,415.1421 344.57194,419.81976 344.57475,439.0573 C 344.57735,456.85285 373.98787,465.52911 405.16578,465.67618 C 436.34369,465.82324 470.60998,456.99931 470.60998,420.08584 C 470.60998,383.17237 434.72597,387.43727 434.72597,387.43727 L 388.54737,387.43727 C 388.54737,387.43727 381.63528,386.70194 381.34115,379.64279 C 381.04702,372.58364 386.04725,370.81885 386.04725,370.81885 C 386.04725,370.81885 395.90065,373.76017 406.19524,373.76017 C 416.48983,373.76017 456.93288,369.49557 456.93288,334.49365 C 456.93288,318.59355 444.4323,309.49249 444.4323,309.49249 L 466.79627,315.4849 L 466.41861,292.50641 z M 381.48822,422.65948 C 381.48822,422.65948 376.26739,426.11553 376.26739,434.49827 C 376.26739,442.88101 383.9148,451.55788 405.23931,451.55788 C 426.56383,451.55788 436.93196,444.13455 436.93196,431.70402 C 436.93196,423.61408 427.74035,422.58595 427.74035,422.58595 L 381.48822,422.65948 z"
       id="path3181"
       style="fill:#00417b;fill-opacity:1;fill-rule:evenodd;stroke:none;stroke-width:1px;stroke-linecap:butt;stroke-linejoin:miter;stroke-opacity:1" />
    <path
       d="M 522.52415,293.16821 L 470.46292,301.25682 L 470.46292,311.40434 L 483.84589,317.87523 L 483.84589,383.31943 C 483.84589,383.31943 484.54175,415.45872 516.05326,415.82093 C 541.64268,416.11506 554.43739,398.32012 554.43739,398.32012 L 554.43739,415.5268 L 604.88089,409.49711 L 604.88089,400.23198 L 591.9905,392.7897 L 591.9905,293.46234 L 540.17202,301.55095 L 540.17202,311.25728 L 553.84912,318.16936 L 553.84912,388.02553 C 553.84912,388.02553 550.31955,390.96684 538.9955,391.84924 C 527.67144,392.73163 522.52415,381.99584 522.52415,381.99584 L 522.52415,293.16821 z"
       id="path3188"
       style="fill:#00417b;fill-opacity:1;fill-rule:evenodd;stroke:none;stroke-width:1px;stroke-linecap:butt;stroke-linejoin:miter;stroke-opacity:1" />
    <path
       d="M 615.5233,301.55859 C 615.5233,301.55859 640.37717,292.51137 660.86342,292.51137 C 681.34967,292.51137 710.98713,299.47877 710.98713,324.95659 C 710.98713,350.4344 710.98713,395.56654 710.98713,395.56654 L 723.67404,402.22197 L 723.67404,410.64525 C 723.67404,410.64525 714.62682,415.53283 701.31596,415.53283 C 688.0051,415.53283 676.46209,408.77341 676.46209,398.58228 C 673.56925,398.63429 672.51645,415.32485 641.31309,415.32485 C 604.91621,415.32485 607.72397,383.08761 607.72397,382.46367 C 607.72397,381.83972 606.67741,358.39842 633.20179,353.34616 C 659.40754,348.35459 671.5745,346.37875 671.5745,346.37875 L 671.44634,322.66878 C 671.44634,322.66878 669.2867,308.31801 656.91176,308.422 C 644.53682,308.526 644.64081,308.62999 644.64081,308.62999 L 635.90556,332.44395 L 615.41931,332.44395 L 615.5233,301.55859 z M 672.56242,390.41898 L 672.56242,358.38973 C 672.56242,358.38973 646.45951,356.04999 646.40866,376.95214 C 646.37038,392.68793 656.25883,394.52663 660.75943,394.52663 C 665.90754,394.1978 669.32484,392.38541 672.56242,390.41898 z"
       id="path3190"
       style="fill:#00417b;fill-opacity:1;fill-rule:evenodd;stroke:none;stroke-width:1px;stroke-linecap:butt;stroke-linejoin:miter;stroke-opacity:1" />
    <path
       d="M 776.91749,292.0954 L 726.06584,300.10272 L 726.06584,310.70981 L 739.16872,316.94928 L 739.16872,395.67053 L 727.00176,401.91 L 727.00176,411.89315 L 793.97202,411.89315 L 793.97202,402.32597 L 777.9574,395.87852 L 778.06139,330.88408 C 778.06139,330.88408 788.25251,326.82843 798.54763,326.82843 C 808.84275,326.82843 813.93832,327.97233 813.93832,327.97233 L 813.93832,293.96724 C 813.93832,293.96724 792.14598,287.14158 776.7095,317.57322 C 776.70951,317.67721 776.91749,292.0954 776.91749,292.0954 z"
       id="path3195"
       style="fill:#00417b;fill-opacity:1;fill-rule:evenodd;stroke:none;stroke-width:1px;stroke-linecap:butt;stroke-linejoin:miter;stroke-opacity:1" />
    <path
       d="M 877.68486,253.30672 L 877.68486,263.60184 L 890.47576,269.73732 L 890.47576,297.60693 C 890.47576,297.60693 881.53253,293.3433 870.71745,293.3433 C 859.90238,293.3433 815.70616,295.00715 814.45827,355.73795 C 813.21038,416.46875 860.42234,415.63683 860.00637,415.63683 C 859.59041,415.63683 881.63652,416.26077 891.61966,403.36588 C 891.56767,403.36588 891.51567,415.58483 891.51567,415.58483 L 941.4834,409.50135 L 941.4834,399.6222 L 929.47242,393.48672 L 929.36843,245.19542 L 877.68486,253.30672 z M 890.42377,313.51757 L 890.42377,392.44681 C 890.42377,392.44681 886.30098,394.52663 878.62078,394.52663 C 866.1313,394.52663 855.56315,386.0274 855.63874,358.6497 C 855.70504,334.73184 859.19591,315.94073 869.65668,311.02112 C 880.11328,306.10347 889.93879,312.85959 890.42377,313.51757 z"
       id="path3197"
       style="fill:#00417b;fill-opacity:1;fill-rule:evenodd;stroke:none;stroke-width:1px;stroke-linecap:butt;stroke-linejoin:miter;stroke-opacity:1" />
    <path
       d="M 998.4286,264.56393 C 998.4286,276.29448 988.90815,285.81493 977.17759,285.81493 C 965.44704,285.81493 955.92659,276.29448 955.92659,264.56393 C 955.92659,252.83338 965.44704,243.31293 977.17759,243.31293 C 988.90815,243.31293 998.4286,252.83338 998.4286,264.56393 z M 997.5461,292.57994 L 944.74954,300.08029 L 944.74954,310.22782 L 958.57371,316.99284 L 958.57371,395.82001 L 945.92606,401.55557 L 945.92606,412.29136 L 1009.4584,412.29136 L 1009.4584,401.99677 L 997.39903,396.11414 L 997.5461,292.57994 z"
       id="path3220"
       style="fill:#00417b;fill-opacity:1;fill-rule:nonzero;stroke:none;stroke-width:1;stroke-miterlimit:4;stroke-opacity:1" />
    <path
       d="M 1021.6479,301.42743 C 1021.6479,301.42743 1046.5018,292.38021 1066.988,292.38021 C 1087.4743,292.38021 1117.1117,299.34761 1117.1117,324.82543 C 1117.1117,350.30324 1117.1117,395.43538 1117.1117,395.43538 L 1129.7986,402.09081 L 1129.7986,410.51409 C 1129.7986,410.51409 1120.7514,415.40167 1107.4406,415.40167 C 1094.1297,415.40167 1082.5867,408.64225 1082.5867,398.45112 C 1079.6939,398.50313 1078.641,415.19369 1047.4377,415.19369 C 1011.0408,415.19369 1013.8486,382.95645 1013.8486,382.33251 C 1013.8486,381.70856 1012.802,358.26726 1039.3264,353.215 C 1065.5321,348.22343 1077.6991,346.24759 1077.6991,346.24759 L 1077.5709,322.53762 C 1077.5709,322.53762 1075.4113,308.18685 1063.0364,308.29084 C 1050.6614,308.39484 1050.7654,308.49883 1050.7654,308.49883 L 1042.0302,332.31279 L 1021.5439,332.31279 L 1021.6479,301.42743 z M 1078.687,390.28782 L 1078.687,358.25857 C 1078.687,358.25857 1052.5841,355.91883 1052.5333,376.82098 C 1052.495,392.55677 1062.3834,394.39547 1066.884,394.39547 C 1072.0321,394.06664 1075.4494,392.25425 1078.687,390.28782 z"
       id="path3224"
       style="fill:#00417b;fill-opacity:1;fill-rule:evenodd;stroke:none;stroke-width:1px;stroke-linecap:butt;stroke-linejoin:miter;stroke-opacity:1" />
    <path
       d="M 1183.5841,292.28581 L 1131.6699,300.52149 L 1131.6699,310.37488 L 1145.6412,316.99284 L 1145.6412,396.40827 L 1132.8465,401.55557 L 1132.8465,412.58549 L 1196.3788,412.58549 L 1196.3788,401.70263 L 1184.6136,396.11414 L 1184.6136,319.34589 C 1184.6136,319.34589 1190.9374,316.40458 1200.2025,316.40458 C 1209.4677,316.40458 1216.6739,320.52241 1216.6739,329.64048 C 1216.6739,338.75855 1216.6739,396.11414 1216.6739,396.11414 L 1203.6384,402.51974 L 1203.585,412.29136 L 1268.2939,412.29136 L 1268.2939,401.8497 L 1255.6463,396.55534 L 1255.6463,322.87546 C 1255.6463,322.87546 1256.5287,293.46234 1226.6743,293.46234 C 1196.82,293.46234 1183.7312,309.19836 1183.7312,309.19836 L 1183.5841,292.28581 z"
       id="path3228"
       style="fill:#00417b;fill-opacity:1;fill-rule:evenodd;stroke:none;stroke-width:1px;stroke-linecap:butt;stroke-linejoin:miter;stroke-opacity:1" />
  </g>
</svg>
